<svg version="1.1" viewBox="0.0 0.0 113.02887139107611 114.61154855643045" fill="none" stroke="none" stroke-linecap="square" stroke-miterlimit="10" xmlns:xlink="http://www.w3.org/1999/xlink" xmlns="http://www.w3.org/2000/svg"><clipPath id="p.0"><path d="m0 0l113.02887 0l0 114.61155l-113.02887 0l0 -114.61155z" clip-rule="nonzero"/></clipPath><g clip-path="url(#p.0)"><path fill="#000000" fill-opacity="0.0" d="m0 0l113.02887 0l0 114.61155l-113.02887 0z" fill-rule="evenodd"/><path fill="#ffff00" d="m7.9396324 51.892387l0 0c0 -5.470661 4.7662287 -9.90551 10.64567 -9.90551l0 0c5.8794403 0 10.645668 4.434849 10.645668 9.90551l0 0c0 5.470665 -4.7662277 9.905514 -10.645668 9.905514l0 0c-5.8794413 0 -10.64567 -4.434849 -10.64567 -9.905514z" fill-rule="evenodd"/><path stroke="#ffff00" stroke-width="1.0" stroke-linejoin="round" stroke-linecap="butt" d="m7.9396324 51.892387l0 0c0 -5.470661 4.7662287 -9.90551 10.64567 -9.90551l0 0c5.8794403 0 10.645668 4.434849 10.645668 9.90551l0 0c0 5.470665 -4.7662277 9.905514 -10.645668 9.905514l0 0c-5.8794413 0 -10.64567 -4.434849 -10.64567 -9.905514z" fill-rule="evenodd"/><path fill="#ffff00" d="m35.88714 45.540745l0 0c0 -1.7540092 1.4219055 -3.1759148 3.1759186 -3.1759148l63.443443 0c0.8423004 0 1.6501083 0.33460236 2.2457123 0.9302025c0.5955963 0.5956001 0.93019867 1.403408 0.93019867 2.2457123l0 12.703285c0 1.7540131 -1.4219055 3.1759186 -3.175911 3.1759186l-63.443443 0c-1.7540131 0 -3.1759186 -1.4219055 -3.1759186 -3.1759186z" fill-rule="evenodd"/><path stroke="#ffff00" stroke-width="1.0" stroke-linejoin="round" stroke-linecap="butt" d="m35.88714 45.540745l0 0c0 -1.7540092 1.4219055 -3.1759148 3.1759186 -3.1759148l63.443443 0c0.8423004 0 1.6501083 0.33460236 2.2457123 0.9302025c0.5955963 0.5956001 0.93019867 1.403408 0.93019867 2.2457123l0 12.703285c0 1.7540131 -1.4219055 3.1759186 -3.175911 3.1759186l-63.443443 0c-1.7540131 0 -3.1759186 -1.4219055 -3.1759186 -3.1759186z" fill-rule="evenodd"/><path fill="#6fa8dc" d="m7.9396324 81.93438l0 0c0 -5.4706573 4.7662287 -9.90551 10.64567 -9.90551l0 0c5.8794403 0 10.645668 4.4348526 10.645668 9.90551l0 0c0 5.470665 -4.7662277 9.905518 -10.645668 9.905518l0 0c-5.8794413 0 -10.64567 -4.4348526 -10.64567 -9.905518z" fill-rule="evenodd"/><path stroke="#6fa8dc" stroke-width="1.0" stroke-linejoin="round" stroke-linecap="butt" d="m7.9396324 81.93438l0 0c0 -5.4706573 4.7662287 -9.90551 10.64567 -9.90551l0 0c5.8794403 0 10.645668 4.4348526 10.645668 9.90551l0 0c0 5.470665 -4.7662277 9.905518 -10.645668 9.905518l0 0c-5.8794413 0 -10.64567 -4.4348526 -10.64567 -9.905518z" fill-rule="evenodd"/><path fill="#6fa8dc" d="m35.88714 75.58274l0 0c0 -1.7540131 1.4219055 -3.1759186 3.1759186 -3.1759186l63.443443 0c0.8423004 0 1.6501083 0.33461 2.2457123 0.9302063c0.5955963 0.5955963 0.93019867 1.4034042 0.93019867 2.2457123l0 12.703285c0 1.7540131 -1.4219055 3.1759186 -3.175911 3.1759186l-63.443443 0c-1.7540131 0 -3.1759186 -1.4219055 -3.1759186 -3.1759186z" fill-rule="evenodd"/><path stroke="#6fa8dc" stroke-width="1.0" stroke-linejoin="round" stroke-linecap="butt" d="m35.88714 75.58274l0 0c0 -1.7540131 1.4219055 -3.1759186 3.1759186 -3.1759186l63.443443 0c0.8423004 0 1.6501083 0.33461 2.2457123 0.9302063c0.5955963 0.5955963 0.93019867 1.4034042 0.93019867 2.2457123l0 12.703285c0 1.7540131 -1.4219055 3.1759186 -3.175911 3.1759186l-63.443443 0c-1.7540131 0 -3.1759186 -1.4219055 -3.1759186 -3.1759186z" fill-rule="evenodd"/><path fill="#e07f64" d="m7.9396324 20.11811l0 0c0 -5.470663 4.7662287 -9.905512 10.64567 -9.905512l0 0c5.8794403 0 10.645668 4.434849 10.645668 9.905512l0 0c0 5.470663 -4.7662277 9.905512 -10.645668 9.905512l0 0c-5.8794413 0 -10.64567 -4.434849 -10.64567 -9.905512z" fill-rule="evenodd"/><path stroke="#e07f64" stroke-width="1.0" stroke-linejoin="round" stroke-linecap="butt" d="m7.9396324 20.11811l0 0c0 -5.470663 4.7662287 -9.905512 10.64567 -9.905512l0 0c5.8794403 0 10.645668 4.434849 10.645668 9.905512l0 0c0 5.470663 -4.7662277 9.905512 -10.645668 9.905512l0 0c-5.8794413 0 -10.64567 -4.434849 -10.64567 -9.905512z" fill-rule="evenodd"/><path fill="#e07f64" d="m35.88714 13.766468l0 0c0 -1.7540102 1.4219055 -3.1759167 3.1759186 -3.1759167l63.443443 0c0.8423004 0 1.6501083 0.33460426 2.2457123 0.9302044c0.5955963 0.5956001 0.93019867 1.4034061 0.93019867 2.2457123l0 12.703285c0 1.7540092 -1.4219055 3.1759167 -3.175911 3.1759167l-63.443443 0c-1.7540131 0 -3.1759186 -1.4219074 -3.1759186 -3.1759167z" fill-rule="evenodd"/><path stroke="#e07f64" stroke-width="1.0" stroke-linejoin="round" stroke-linecap="butt" d="m35.88714 13.766468l0 0c0 -1.7540102 1.4219055 -3.1759167 3.1759186 -3.1759167l63.443443 0c0.8423004 0 1.6501083 0.33460426 2.2457123 0.9302044c0.5955963 0.5956001 0.93019867 1.4034061 0.93019867 2.2457123l0 12.703285c0 1.7540092 -1.4219055 3.1759167 -3.175911 3.1759167l-63.443443 0c-1.7540131 0 -3.1759186 -1.4219074 -3.1759186 -3.1759167z" fill-rule="evenodd"/></g></svg>